<svg xmlns="http://www.w3.org/2000/svg" viewBox="1062.457 277.441 237.385 150.153">
  <defs>
    <style>
      .cls-1 {
        fill: #ddd;
      }

      .cls-1, .cls-2 {
        stroke: #475058;
        stroke-width: 6px;
      }

      .cls-2 {
        fill: #fff;
      }

      .cls-3 {
        fill: #475058;
      }

      .cls-4 {
        fill: #48bddb;
      }

      .cls-5 {
        stroke: none;
      }

      .cls-6 {
        fill: none;
      }
    </style>
  </defs>
  <g id="Group_6" data-name="Group 6" transform="translate(1062.457 277.441)">
    <g id="Ellipse_6" data-name="Ellipse 6" class="cls-1" transform="translate(0.017 15.285)">
      <ellipse class="cls-5" cx="118.684" cy="67.434" rx="118.684" ry="67.434"/>
      <ellipse class="cls-6" cx="118.684" cy="67.434" rx="115.684" ry="64.434"/>
    </g>
    <g id="Ellipse_5" data-name="Ellipse 5" class="cls-2" transform="translate(0.017)">
      <ellipse class="cls-5" cx="118.684" cy="67.434" rx="118.684" ry="67.434"/>
      <ellipse class="cls-6" cx="118.684" cy="67.434" rx="115.684" ry="64.434"/>
    </g>
    <path id="Path_27" data-name="Path 27" class="cls-3" d="M1301.485,993v15.382l-4.591-8.557Z" transform="translate(-1064.099 -925.566)"/>
    <path id="Path_28" data-name="Path 28" class="cls-3" d="M4.513,0V13.921L0,6.127Z" transform="translate(4.513 82.118) rotate(180)"/>
    <path id="Path_1" data-name="Path 1" class="cls-4" d="M38.586,67.531q-1.937-5.8-5.846-7.967,4.978-5.88,4.377-19.96A40.048,40.048,0,0,0,35.9,30.75a17.454,17.454,0,0,0-2.757-6.033,13.262,13.262,0,0,0-3.775-3.482,15.151,15.151,0,0,0-4.677-1.74V0H19.543V18.953q-1.336,0-4.075.155V0H10.323V19.495q-1.1.078-3.241.078L0,19.495V32.182H3.708q2.539,0,2.973,5.26v22.2a1.518,1.518,0,0,1,.535.078H6.681v31.1q-.267,3.944-1.937,3.946H1.036L0,108.922H6.682q.635,0,1.837.036t1.8.039v19.726h5.146V109.23q1.4.079,4.075.078v19.416h5.144V109a18.567,18.567,0,0,0,4.86-1.16,13.1,13.1,0,0,0,4.059-2.67,15.089,15.089,0,0,0,3.24-4.526A29.807,29.807,0,0,0,39,93.757a62.126,62.126,0,0,0,1.085-9.671Q40.525,73.336,38.586,67.531ZM15.568,33.03q.234,0,1.32-.039t1.8-.078a8.53,8.53,0,0,1,1.938.194,8.89,8.89,0,0,1,2.054.619A7.821,7.821,0,0,1,24.521,35a6.622,6.622,0,0,1,1.6,2.166,14.993,14.993,0,0,1,1.019,3.25,21.965,21.965,0,0,1,.418,4.525,23.816,23.816,0,0,1-.3,3.946,10.616,10.616,0,0,1-.9,2.978,15.7,15.7,0,0,1-1.237,2.089,4.8,4.8,0,0,1-1.62,1.431,18.722,18.722,0,0,1-1.72.851,6.524,6.524,0,0,1-1.837.426q-1.1.115-1.671.155a15.52,15.52,0,0,1-1.554,0q-.986-.038-1.153-.039V33.03h0ZM29.616,85.711a17.346,17.346,0,0,1-.818,3.1,8.375,8.375,0,0,1-1.32,2.319,10.937,10.937,0,0,1-1.587,1.625,7.869,7.869,0,0,1-1.854,1.084,12.042,12.042,0,0,1-1.905.657,15.5,15.5,0,0,1-1.954.31q-1.135.114-1.771.115c-.423,0-.958-.014-1.6-.039s-1.058-.037-1.236-.037V68.692q.267,0,1.587-.078c.88-.052,1.6-.076,2.155-.076a15.6,15.6,0,0,1,2.306.232,9.385,9.385,0,0,1,2.472.694A10.66,10.66,0,0,1,26.275,70.9,7.563,7.563,0,0,1,28.2,73.255a14.907,14.907,0,0,1,1.236,3.559,22.03,22.03,0,0,1,.5,4.951A22.524,22.524,0,0,1,29.616,85.711Z" transform="translate(183.153 47.414) rotate(90)"/>
    <path id="Path_29" data-name="Path 29" class="cls-3" d="M7.77,8.164a27.658,27.658,0,0,0-4.815.429,1.63,1.63,0,0,1-.31.029C1.319,8.621.174,7.09.018,5.013-.151,2.776.889.747,2.341.486A30.613,30.613,0,0,1,7.818,0H7.85l.034,4.082V0c1.465,0,2.593,1.825,2.593,4.082S9.235,8.164,7.77,8.164Z" transform="translate(210.502 59.57) rotate(90)"/>
    <path id="Path_30" data-name="Path 30" class="cls-3" d="M8.387,7.728A45.127,45.127,0,0,0,4.1,11.537a2.031,2.031,0,0,1-1.443.665A2.614,2.614,0,0,1,.431,10.349,5.553,5.553,0,0,1,1.2,4.7,50.017,50.017,0,0,1,6,.438C7.314-.578,8.9.234,9.56,2.246S9.692,6.712,8.387,7.728Z" transform="translate(203.062 40.027) rotate(90)"/>
    <path id="Path_31" data-name="Path 31" class="cls-3" d="M5.218,12.832c-.3,1.853-1.38,3.09-2.566,3.09a1.823,1.823,0,0,1-.646-.122C.586,15.253-.275,13.036.08,10.848c.442-2.714.964-5.437,1.555-8.09C2.111.627,3.616-.511,5,.223S7.122,3.276,6.648,5.411C6.105,7.84,5.626,10.338,5.218,12.832Z" transform="translate(154.694 16.74) rotate(90)"/>
    <path id="Path_32" data-name="Path 32" class="cls-3" d="M4.7,1.5C5.754,3.492,6.874,5.419,8.037,7.231A5.75,5.75,0,0,1,8.011,13a2.286,2.286,0,0,1-1.859,1.18,2.3,2.3,0,0,1-1.886-1.212c-1.277-2-2.511-4.119-3.671-6.311A5.7,5.7,0,0,1,.979.917C2.115-.5,3.781-.246,4.7,1.5Z" transform="translate(62.84 28.149) rotate(90)"/>
    <path id="Path_33" data-name="Path 33" class="cls-3" d="M.456,8.272C1.481,5.942,2.588,3.66,3.746,1.488,4.678-.25,6.341-.5,7.475.929a5.724,5.724,0,0,1,.363,5.747c-1.054,1.976-2.063,4.053-3,6.176a2.574,2.574,0,0,1-2.2,1.792,2.063,2.063,0,0,1-1.483-.7A5.589,5.589,0,0,1,.456,8.272Z" transform="translate(182.854 25.223) rotate(90)"/>
    <path id="Path_34" data-name="Path 34" class="cls-3" d="M3.863.454a38.164,38.164,0,0,0,4.518,3.09C9.75,4.336,10.442,6.691,9.925,8.8c-.4,1.637-1.406,2.645-2.479,2.645a1.852,1.852,0,0,1-.935-.265A43.175,43.175,0,0,1,1.439,7.716C.139,6.687-.375,4.226.292,2.222S2.557-.583,3.863.454Z" transform="translate(42.466 44.265) rotate(90)"/>
    <path id="Path_35" data-name="Path 35" class="cls-3" d="M2.762.471A27.211,27.211,0,0,0,7.681.022c1.494-.229,2.773,1.335,2.945,3.572s-.863,4.27-2.315,4.539a30.915,30.915,0,0,1-5.551.506H2.535C1.07,8.639,0,6.81,0,4.557S1.3.471,2.762.471Z" transform="translate(35.258 64.578) rotate(90)"/>
    <path id="Path_36" data-name="Path 36" class="cls-3" d="M1.8.219c1.383-.731,2.89.429,3.356,2.563.535,2.441,1.144,4.87,1.809,7.225.585,2.065-.032,4.474-1.372,5.372a1.87,1.87,0,0,1-1.054.339c-1.025,0-2-.918-2.431-2.453C1.386,10.7.724,8.048.142,5.387-.33,3.256.414.941,1.8.219Z" transform="translate(91.098 18.124) rotate(90)"/>
    <path id="Path_37" data-name="Path 37" class="cls-3" d="M2.649,0C4.113,0,5.3,1.959,5.3,4.212c0,2.518.061,5.045.185,7.507.114,2.249-.977,4.212-2.437,4.384a1.787,1.787,0,0,1-.207.012C1.467,16.115.31,14.491.2,12.348.066,9.678,0,6.939,0,4.212V3.951C0,1.694,1.184,0,2.649,0Z" transform="translate(122.775 14.809) rotate(90)"/>
    <path id="Path_38" data-name="Path 38" class="cls-3" d="M.2,12.075C.2,9.532.138,6.948.008,4.4-.106,2.152.983.189,2.442.009c1.433-.147,2.731,1.5,2.847,3.747.14,2.759.212,5.559.212,8.315v.086c0,2.253-1.184,4.037-2.649,4.037S.2,14.328.2,12.075Z" transform="translate(130.638 114.368) rotate(90)"/>
    <path id="Path_39" data-name="Path 39" class="cls-3" d="M1.563,3.1C1.918.91,3.359-.424,4.773.123S7.056,2.882,6.7,5.07c-.44,2.719-.961,5.441-1.549,8.094-.376,1.7-1.4,2.763-2.506,2.763a1.853,1.853,0,0,1-.855-.22C.411,14.976-.331,12.658.143,10.523.681,8.094,1.158,5.6,1.563,3.1Z" transform="translate(98.525 111.187) rotate(90)"/>
    <path id="Path_40" data-name="Path 40" class="cls-3" d="M7.446,11.427a1.934,1.934,0,0,1-1.2-.445A38.449,38.449,0,0,0,1.72,7.908C.351,7.12-.343,4.765.168,2.655S2.2-.533,3.577.263A43.139,43.139,0,0,1,8.651,3.712c1.3,1.02,1.822,3.482,1.157,5.49C9.34,10.614,8.41,11.427,7.446,11.427Z" transform="translate(206.169 80.211) rotate(90)"/>
    <path id="Path_41" data-name="Path 41" class="cls-3" d="M1.586.352c1.348-.922,2.9.033,3.488,2.1.726,2.555,1.393,5.2,1.981,7.874.469,2.135-.275,4.453-1.658,5.18a1.827,1.827,0,0,1-.85.216c-1.1,0-2.135-1.074-2.508-2.772C1.5,10.5.89,8.071.222,5.732-.363,3.667.246,1.258,1.586.352Z" transform="translate(161.917 109.323) rotate(90)"/>
    <path id="Path_42" data-name="Path 42" class="cls-3" d="M1.453,4.5A45.26,45.26,0,0,0,5.738.667C6.962-.57,8.6-.035,9.407,1.847A5.558,5.558,0,0,1,8.641,7.5a50.892,50.892,0,0,1-4.794,4.278,1.914,1.914,0,0,1-1.194.441c-.967,0-1.9-.816-2.365-2.233C-.374,7.973.145,5.516,1.453,4.5Z" transform="translate(46.356 84.909) rotate(90)"/>
    <path id="Path_43" data-name="Path 43" class="cls-3" d="M3.587,1.8C4.408-.072,6.053-.561,7.266.7a5.594,5.594,0,0,1,.71,5.67C6.937,8.733,5.835,11.019,4.7,13.162a2.436,2.436,0,0,1-2.05,1.494A2.157,2.157,0,0,1,.97,13.729,5.717,5.717,0,0,1,.6,7.982C1.632,6.035,2.639,3.953,3.587,1.8Z" transform="translate(69.064 101.093) rotate(90)"/>
    <path id="Path_44" data-name="Path 44" class="cls-3" d="M4.53,1.207c1.277,1.984,2.516,4.106,3.681,6.3a5.7,5.7,0,0,1-.376,5.743,2.163,2.163,0,0,1-1.674.922,2.434,2.434,0,0,1-2.053-1.5c-1.057-2-2.18-3.919-3.34-5.719A5.75,5.75,0,0,1,.785,1.187,2.063,2.063,0,0,1,4.53,1.207Z" transform="translate(188.59 97.65) rotate(90)"/>
    <rect id="Rectangle_23" data-name="Rectangle 23" class="cls-3" width="5.395" height="15.285" transform="translate(219.403 97.105)"/>
    <rect id="Rectangle_24" data-name="Rectangle 24" class="cls-3" width="5.395" height="15.285" transform="translate(205.017 108.794)"/>
    <rect id="Rectangle_25" data-name="Rectangle 25" class="cls-3" width="5.395" height="15.285" transform="translate(190.631 117.785)"/>
    <rect id="Rectangle_26" data-name="Rectangle 26" class="cls-3" width="5.395" height="15.285" transform="translate(176.245 122.281)"/>
  </g>
</svg>
