<svg xmlns="http://www.w3.org/2000/svg" viewBox="282.671 1488.072 129.731 129.84">
  <defs>
    <style>
      .cls-1 {
        fill: #fff;
        stroke: #475058;
        stroke-width: 6px;
      }

      .cls-2 {
        fill: #48bddb;
      }

      .cls-3 {
        stroke: none;
      }

      .cls-4 {
        fill: none;
      }
    </style>
  </defs>
  <g id="Group_20" data-name="Group 20" transform="translate(282.671 1617.929) rotate(-90)">
    <g id="Ellipse_5" data-name="Ellipse 5" class="cls-1" transform="translate(0.018 0)">
      <ellipse class="cls-3" cx="64.92" cy="64.865" rx="64.92" ry="64.865"/>
      <ellipse class="cls-4" cx="64.92" cy="64.865" rx="61.92" ry="61.865"/>
    </g>
    <path id="Path_1" data-name="Path 1" class="cls-2" d="M37.116,36.94a9.6,9.6,0,0,0-5.624-4.358q4.788-3.216,4.21-10.918a13.294,13.294,0,0,0-1.173-4.844,8.724,8.724,0,0,0-2.652-3.3,12.823,12.823,0,0,0-3.631-1.9,22.4,22.4,0,0,0-4.5-.952V0H18.8V10.367q-1.285,0-3.92.085V0H9.93V10.663q-1.061.042-3.117.043L0,10.663V17.6H3.567q2.442,0,2.86,2.877V32.625a2.5,2.5,0,0,1,.514.043H6.427v17.01q-.257,2.158-1.864,2.158H1L0,59.58H6.427q.611,0,1.767.02t1.735.021v10.79h4.95V59.748q1.349.043,3.92.043V70.412h4.948V59.621a29.582,29.582,0,0,0,4.675-.635,15.68,15.68,0,0,0,3.9-1.461,10.5,10.5,0,0,0,3.116-2.476,12.092,12.092,0,0,0,2.073-3.766,20.164,20.164,0,0,0,1.043-5.29Q38.981,40.114,37.116,36.94ZM14.975,18.068q.225,0,1.269-.021T17.98,18a14.265,14.265,0,0,1,1.864.106,13.727,13.727,0,0,1,1.976.339,9.13,9.13,0,0,1,1.767.7,4.723,4.723,0,0,1,1.542,1.185,6.082,6.082,0,0,1,.98,1.777,7.06,7.06,0,0,1,.4,2.475,7.573,7.573,0,0,1-.289,2.159,4.255,4.255,0,0,1-.867,1.629,9.382,9.382,0,0,1-1.189,1.143,4.751,4.751,0,0,1-1.558.783q-.947.3-1.654.465a10.413,10.413,0,0,1-1.767.233q-1.061.063-1.607.085t-1.494,0q-.949-.021-1.109-.021V18.067h0ZM28.488,46.884a6.572,6.572,0,0,1-.787,1.694,4.853,4.853,0,0,1-1.27,1.269,9.8,9.8,0,0,1-1.526.889,9.97,9.97,0,0,1-1.783.593,18.217,18.217,0,0,1-1.833.36q-.787.106-1.88.17t-1.7.063q-.611,0-1.543-.021t-1.189-.02v-14.3q.257,0,1.526-.043t2.073-.042q.8,0,2.218.127A14.637,14.637,0,0,1,23.17,38a12.853,12.853,0,0,1,2.1.783,5.827,5.827,0,0,1,1.848,1.29,6.344,6.344,0,0,1,1.189,1.947,7.811,7.811,0,0,1,.177,4.867Z" transform="translate(100.192 45.608) rotate(90)"/>
  </g>
</svg>
