<svg xmlns="http://www.w3.org/2000/svg" viewBox="51.461 1441.868 587.094 401.601">
  <defs>
    <style>
      .cls-1 {
        fill: #ddd;
      }

      .cls-1, .cls-2, .cls-8 {
        stroke: #475058;
      }

      .cls-1, .cls-2 {
        stroke-width: 4px;
      }

      .cls-2, .cls-5, .cls-8 {
        fill: #fff;
      }

      .cls-10, .cls-3 {
        fill: #475058;
      }

      .cls-4, .cls-9 {
        fill: #48bddb;
      }

      .cls-6 {
        fill: #f1c40f;
      }

      .cls-7 {
        opacity: 0.073;
      }

      .cls-10, .cls-8, .cls-9 {
        stroke-miterlimit: 10;
      }

      .cls-8 {
        stroke-width: 6px;
      }

      .cls-10, .cls-9 {
        stroke: #fff;
        stroke-width: 3px;
      }

      .cls-11 {
        stroke: none;
      }

      .cls-12 {
        fill: none;
      }
    </style>
  </defs>
  <g id="Group_89" data-name="Group 89" transform="translate(-210 -240)">
    <g id="Group_87" data-name="Group 87" transform="translate(280.457 1967.88)">
      <g id="Ellipse_6" data-name="Ellipse 6" class="cls-1" transform="translate(0.008 7.532)">
        <ellipse class="cls-11" cx="58.484" cy="33.23" rx="58.484" ry="33.23"/>
        <ellipse class="cls-12" cx="58.484" cy="33.23" rx="56.484" ry="31.23"/>
      </g>
      <g id="Ellipse_5" data-name="Ellipse 5" class="cls-2" transform="translate(0.008)">
        <ellipse class="cls-11" cx="58.484" cy="33.23" rx="58.484" ry="33.23"/>
        <ellipse class="cls-12" cx="58.484" cy="33.23" rx="56.484" ry="31.23"/>
      </g>
      <path id="Path_27" data-name="Path 27" class="cls-3" d="M1299.156,993v7.58l-2.262-4.217Z" transform="translate(-1182.18 -959.77)"/>
      <path id="Path_28" data-name="Path 28" class="cls-3" d="M2.224,0V6.86L0,3.019Z" transform="translate(2.224 40.466) rotate(180)"/>
      <path id="Path_1" data-name="Path 1" class="cls-4" d="M19.014,33.277a6.615,6.615,0,0,0-2.881-3.926q2.453-2.9,2.157-9.836a19.735,19.735,0,0,0-.6-4.363A8.6,8.6,0,0,0,16.33,12.18a6.535,6.535,0,0,0-1.86-1.716,7.466,7.466,0,0,0-2.3-.858V0H9.63V9.339q-.658,0-2.008.076V0H5.087V9.606q-.543.038-1.6.038L0,9.606v6.252H1.827q1.251,0,1.465,2.592V29.391a.748.748,0,0,1,.264.038H3.292V44.753Q3.161,46.7,2.338,46.7H.511L0,53.674H3.293q.313,0,.905.018t.889.019v9.721H7.623V53.825q.691.039,2.008.038v9.568h2.535V53.711a9.149,9.149,0,0,0,2.4-.572,6.454,6.454,0,0,0,2-1.316,7.435,7.435,0,0,0,1.6-2.23A14.688,14.688,0,0,0,19.22,46.2a30.614,30.614,0,0,0,.535-4.766A23.91,23.91,0,0,0,19.014,33.277Zm-11.343-17q.115,0,.65-.019t.889-.038a4.2,4.2,0,0,1,.955.1,4.381,4.381,0,0,1,1.012.3,3.854,3.854,0,0,1,.905.629,3.263,3.263,0,0,1,.79,1.067,7.388,7.388,0,0,1,.5,1.6,10.824,10.824,0,0,1,.206,2.23,11.736,11.736,0,0,1-.148,1.945,5.231,5.231,0,0,1-.444,1.468,7.738,7.738,0,0,1-.609,1.029,2.364,2.364,0,0,1-.8.7,9.226,9.226,0,0,1-.847.419,3.215,3.215,0,0,1-.905.21q-.543.057-.823.076a7.648,7.648,0,0,1-.766,0q-.486-.019-.568-.019v-11.7h0Zm6.923,25.96a8.548,8.548,0,0,1-.4,1.526,4.127,4.127,0,0,1-.65,1.143,5.389,5.389,0,0,1-.782.8,3.878,3.878,0,0,1-.914.534,5.933,5.933,0,0,1-.939.324,7.636,7.636,0,0,1-.963.153q-.559.056-.872.057c-.209,0-.472-.007-.79-.019s-.521-.018-.609-.018V33.85q.132,0,.782-.038c.434-.026.787-.038,1.062-.038a7.687,7.687,0,0,1,1.136.114,4.625,4.625,0,0,1,1.218.342,5.253,5.253,0,0,1,1.078.706,3.727,3.727,0,0,1,.947,1.162,7.346,7.346,0,0,1,.609,1.754,10.856,10.856,0,0,1,.247,2.44A11.1,11.1,0,0,1,14.594,42.236Z" transform="translate(90.252 23.364) rotate(90)"/>
      <path id="Path_29" data-name="Path 29" class="cls-3" d="M3.829,4.023a13.629,13.629,0,0,0-2.373.211.8.8,0,0,1-.153.014C.65,4.248.086,3.494.009,2.47-.075,1.368.438.368,1.154.239A15.085,15.085,0,0,1,3.853,0h.016l.017,2.011V0c.722,0,1.278.9,1.278,2.011S4.551,4.023,3.829,4.023Z" transform="translate(103.729 29.354) rotate(90)"/>
      <path id="Path_30" data-name="Path 30" class="cls-3" d="M4.133,3.808A22.237,22.237,0,0,0,2.018,5.685a1,1,0,0,1-.711.328A1.288,1.288,0,0,1,.212,5.1,2.736,2.736,0,0,1,.593,2.316,24.647,24.647,0,0,1,2.958.216c.646-.5,1.429-.1,1.753.891A2.611,2.611,0,0,1,4.133,3.808Z" transform="translate(100.063 19.724) rotate(90)"/>
      <path id="Path_31" data-name="Path 31" class="cls-3" d="M2.571,6.323c-.147.913-.68,1.523-1.265,1.523a.9.9,0,0,1-.318-.06,2.243,2.243,0,0,1-.949-2.44C.257,4.008.514,2.667.805,1.359,1.04.309,1.782-.252,2.464.11a2.4,2.4,0,0,1,.812,2.557C3.009,3.863,2.772,5.094,2.571,6.323Z" transform="translate(76.229 8.249) rotate(90)"/>
      <path id="Path_32" data-name="Path 32" class="cls-3" d="M2.317.739c.518.982,1.07,1.931,1.643,2.824a2.833,2.833,0,0,1-.013,2.844,1.126,1.126,0,0,1-.916.581,1.136,1.136,0,0,1-.929-.6C1.473,5.408.865,4.362.293,3.282A2.809,2.809,0,0,1,.482.452C1.042-.248,1.863-.121,2.317.739Z" transform="translate(30.966 13.871) rotate(90)"/>
      <path id="Path_33" data-name="Path 33" class="cls-3" d="M.225,4.076C.73,2.928,1.275,1.8,1.846.733,2.305-.123,3.125-.248,3.683.458A2.821,2.821,0,0,1,3.862,3.29c-.519.974-1.017,2-1.476,3.043A1.268,1.268,0,0,1,1.3,7.216,1.016,1.016,0,0,1,.573,6.87,2.754,2.754,0,0,1,.225,4.076Z" transform="translate(90.105 12.429) rotate(90)"/>
      <path id="Path_34" data-name="Path 34" class="cls-3" d="M1.9.224A18.806,18.806,0,0,0,4.13,1.746a2.444,2.444,0,0,1,.761,2.591c-.2.807-.693,1.3-1.222,1.3a.913.913,0,0,1-.461-.131A21.276,21.276,0,0,1,.709,3.8,2.619,2.619,0,0,1,.144,1.095C.473.107,1.26-.287,1.9.224Z" transform="translate(20.926 21.813) rotate(90)"/>
      <path id="Path_35" data-name="Path 35" class="cls-3" d="M1.361.232A13.409,13.409,0,0,0,3.785.011C4.521-.1,5.151.669,5.236,1.771S4.811,3.875,4.1,4.008a15.234,15.234,0,0,1-2.736.249H1.249C.527,4.257,0,3.356,0,2.246S.64.232,1.361.232Z" transform="translate(17.374 31.822) rotate(90)"/>
      <path id="Path_36" data-name="Path 36" class="cls-3" d="M.888.108c.681-.36,1.424.211,1.654,1.263.264,1.2.564,2.4.891,3.56a2.527,2.527,0,0,1-.676,2.647.921.921,0,0,1-.519.167c-.505,0-.984-.453-1.2-1.209C.683,5.271.357,3.966.07,2.654A2.381,2.381,0,0,1,.888.108Z" transform="translate(44.891 8.931) rotate(90)"/>
      <path id="Path_37" data-name="Path 37" class="cls-3" d="M1.305,0C2.027,0,2.61.965,2.61,2.076c0,1.241.03,2.486.091,3.7.056,1.108-.482,2.076-1.2,2.16a.881.881,0,0,1-.1.006c-.676,0-1.246-.8-1.3-1.857C.033,4.769,0,3.419,0,2.076V1.947C0,.835.583,0,1.305,0Z" transform="translate(60.5 7.298) rotate(90)"/>
      <path id="Path_38" data-name="Path 38" class="cls-3" d="M.1,5.95C.1,4.7.068,3.424,0,2.169-.052,1.06.484.093,1.2,0c.706-.072,1.346.74,1.4,1.846.069,1.36.1,2.74.1,4.1V5.99c0,1.11-.583,1.989-1.305,1.989S.1,7.061.1,5.95Z" transform="translate(64.374 56.357) rotate(90)"/>
      <path id="Path_39" data-name="Path 39" class="cls-3" d="M.77,1.527C.945.449,1.655-.209,2.352.06A2.241,2.241,0,0,1,3.3,2.5c-.217,1.34-.474,2.681-.763,3.989-.185.837-.692,1.362-1.235,1.362A.913.913,0,0,1,.884,7.74,2.4,2.4,0,0,1,.071,5.185C.336,3.989.57,2.758.77,1.527Z" transform="translate(48.55 54.79) rotate(90)"/>
      <path id="Path_40" data-name="Path 40" class="cls-3" d="M3.669,5.631a.953.953,0,0,1-.591-.219A18.946,18.946,0,0,0,.848,3.9,2.445,2.445,0,0,1,.083,1.308C.335.266,1.084-.263,1.763.129a21.258,21.258,0,0,1,2.5,1.7,2.614,2.614,0,0,1,.57,2.705C4.6,5.23,4.144,5.631,3.669,5.631Z" transform="translate(101.594 39.526) rotate(90)"/>
      <path id="Path_41" data-name="Path 41" class="cls-3" d="M.782.174C1.446-.281,2.212.19,2.5,1.207c.358,1.259.686,2.565.976,3.88A2.4,2.4,0,0,1,2.66,7.64a.9.9,0,0,1-.419.107C1.7,7.747,1.189,7.218,1,6.381.74,5.174.439,3.977.11,2.825A2.535,2.535,0,0,1,.782.174Z" transform="translate(79.788 53.871) rotate(90)"/>
      <path id="Path_42" data-name="Path 42" class="cls-3" d="M.716,2.215A22.3,22.3,0,0,0,2.828.329c.6-.609,1.411-.346,1.808.581a2.739,2.739,0,0,1-.377,2.784A25.078,25.078,0,0,1,1.9,5.8a.943.943,0,0,1-.589.217c-.476,0-.936-.4-1.165-1.1A2.608,2.608,0,0,1,.716,2.215Z" transform="translate(22.843 41.841) rotate(90)"/>
      <path id="Path_43" data-name="Path 43" class="cls-3" d="M1.767.886C2.172-.035,2.983-.277,3.58.345a2.757,2.757,0,0,1,.35,2.794C3.418,4.3,2.875,5.43,2.314,6.486a1.2,1.2,0,0,1-1.01.736,1.063,1.063,0,0,1-.826-.457A2.817,2.817,0,0,1,.3,3.933C.8,2.974,1.3,1.948,1.767.886Z" transform="translate(34.033 49.816) rotate(90)"/>
      <path id="Path_44" data-name="Path 44" class="cls-3" d="M2.232.595c.629.978,1.24,2.023,1.814,3.106a2.81,2.81,0,0,1-.185,2.83,1.066,1.066,0,0,1-.825.455,1.2,1.2,0,0,1-1.011-.738C1.5,5.263.95,4.316.379,3.429A2.833,2.833,0,0,1,.387.585,1.017,1.017,0,0,1,2.232.595Z" transform="translate(92.931 48.119) rotate(90)"/>
      <rect id="Rectangle_23" data-name="Rectangle 23" class="cls-3" width="2.658" height="7.532" transform="translate(108.115 47.851)"/>
      <rect id="Rectangle_24" data-name="Rectangle 24" class="cls-3" width="2.658" height="7.532" transform="translate(101.026 53.61)"/>
      <rect id="Rectangle_25" data-name="Rectangle 25" class="cls-3" width="2.658" height="7.532" transform="translate(93.937 58.041)"/>
      <rect id="Rectangle_26" data-name="Rectangle 26" class="cls-3" width="2.658" height="7.532" transform="translate(86.848 60.256)"/>
    </g>
    <g id="Group_88" data-name="Group 88" transform="translate(412.457 2000.88)">
      <g id="Ellipse_6-2" data-name="Ellipse 6" class="cls-1" transform="translate(0.009 8.407)">
        <ellipse class="cls-11" cx="65.28" cy="37.091" rx="65.28" ry="37.091"/>
        <ellipse class="cls-12" cx="65.28" cy="37.091" rx="63.28" ry="35.091"/>
      </g>
      <g id="Ellipse_5-2" data-name="Ellipse 5" class="cls-2" transform="translate(0.009)">
        <ellipse class="cls-11" cx="65.28" cy="37.091" rx="65.28" ry="37.091"/>
        <ellipse class="cls-12" cx="65.28" cy="37.091" rx="63.28" ry="35.091"/>
      </g>
      <path id="Path_27-2" data-name="Path 27" class="cls-3" d="M1299.419,993v8.461l-2.525-4.707Z" transform="translate(-1168.85 -955.909)"/>
      <path id="Path_28-2" data-name="Path 28" class="cls-3" d="M2.482,0V7.657L0,3.37Z" transform="translate(2.482 45.168) rotate(180)"/>
      <path id="Path_1-2" data-name="Path 1" class="cls-4" d="M21.224,37.144a7.384,7.384,0,0,0-3.216-4.382q2.738-3.234,2.407-10.979a22.028,22.028,0,0,0-.671-4.87,9.6,9.6,0,0,0-1.516-3.318,7.3,7.3,0,0,0-2.077-1.915,8.334,8.334,0,0,0-2.573-.957V0h-2.83V10.425q-.735,0-2.242.085V0H5.678V10.723q-.607.043-1.782.043L0,10.723V17.7H2.04q1.4,0,1.635,2.893V32.806a.835.835,0,0,1,.294.043H3.675v17.1q-.147,2.17-1.066,2.17H.57L0,59.911H3.675q.349,0,1.011.02t.992.021V70.8h2.83V60.08q.772.044,2.242.043V70.8h2.83V59.952a10.212,10.212,0,0,0,2.673-.638,7.2,7.2,0,0,0,2.233-1.469,8.3,8.3,0,0,0,1.782-2.489,16.4,16.4,0,0,0,1.186-3.787,34.171,34.171,0,0,0,.6-5.319A26.689,26.689,0,0,0,21.224,37.144ZM8.563,18.168q.129,0,.726-.021t.992-.043a4.692,4.692,0,0,1,1.066.107,4.89,4.89,0,0,1,1.13.34,4.3,4.3,0,0,1,1.011.7,3.642,3.642,0,0,1,.882,1.191,8.247,8.247,0,0,1,.56,1.787,12.081,12.081,0,0,1,.23,2.489,13.1,13.1,0,0,1-.165,2.171,5.839,5.839,0,0,1-.5,1.638,8.637,8.637,0,0,1-.68,1.149,2.639,2.639,0,0,1-.891.787,10.3,10.3,0,0,1-.946.468,3.588,3.588,0,0,1-1.011.234q-.607.063-.919.085a8.538,8.538,0,0,1-.855,0q-.542-.021-.634-.021V18.168h0ZM16.29,47.144a9.541,9.541,0,0,1-.45,1.7,4.607,4.607,0,0,1-.726,1.276,6.016,6.016,0,0,1-.873.894,4.328,4.328,0,0,1-1.02.6,6.623,6.623,0,0,1-1.048.362,8.524,8.524,0,0,1-1.075.17q-.625.063-.974.063c-.233,0-.527-.008-.882-.022s-.582-.02-.68-.02V37.783q.147,0,.873-.043c.484-.029.879-.042,1.185-.042a8.58,8.58,0,0,1,1.268.128,5.162,5.162,0,0,1,1.36.382,5.864,5.864,0,0,1,1.2.787,4.16,4.16,0,0,1,1.057,1.3,8.2,8.2,0,0,1,.68,1.957,12.117,12.117,0,0,1,.276,2.723A12.388,12.388,0,0,1,16.29,47.144Z" transform="translate(100.74 26.079) rotate(90)"/>
      <path id="Path_29-2" data-name="Path 29" class="cls-3" d="M4.274,4.49a15.213,15.213,0,0,0-2.648.236.9.9,0,0,1-.17.016C.725,4.742.1,3.9.01,2.757-.083,1.527.489.411,1.288.267A16.838,16.838,0,0,1,4.3,0h.017l.019,2.245V0c.806,0,1.426,1,1.426,2.245S5.08,4.49,4.274,4.49Z" transform="translate(115.783 32.765) rotate(90)"/>
      <path id="Path_30-2" data-name="Path 30" class="cls-3" d="M4.613,4.251a24.821,24.821,0,0,0-2.36,2.095,1.117,1.117,0,0,1-.794.366A1.438,1.438,0,0,1,.237,5.692,3.054,3.054,0,0,1,.662,2.585,27.511,27.511,0,0,1,3.3.241c.721-.559,1.6-.112,1.956.995A2.915,2.915,0,0,1,4.613,4.251Z" transform="translate(111.691 22.016) rotate(90)"/>
      <path id="Path_31-2" data-name="Path 31" class="cls-3" d="M2.87,7.058c-.165,1.019-.759,1.7-1.412,1.7A1,1,0,0,1,1.1,8.69,2.5,2.5,0,0,1,.044,5.967C.287,4.474.574,2.976.9,1.517,1.161.345,1.989-.281,2.751.123a2.678,2.678,0,0,1,.906,2.854C3.358,4.312,3.094,5.686,2.87,7.058Z" transform="translate(85.086 9.207) rotate(90)"/>
      <path id="Path_32-2" data-name="Path 32" class="cls-3" d="M2.587.825c.578,1.1,1.195,2.155,1.834,3.152a3.163,3.163,0,0,1-.015,3.175A1.257,1.257,0,0,1,3.383,7.8a1.268,1.268,0,0,1-1.037-.667C1.644,6.036.965,4.869.327,3.663A3.136,3.136,0,0,1,.538.5C1.163-.277,2.08-.136,2.587.825Z" transform="translate(34.564 15.483) rotate(90)"/>
      <path id="Path_33-2" data-name="Path 33" class="cls-3" d="M.251,4.55C.815,3.268,1.424,2.013,2.06.819c.513-.956,1.428-1.1,2.051-.308a3.148,3.148,0,0,1,.2,3.161c-.58,1.087-1.135,2.229-1.648,3.4a1.416,1.416,0,0,1-1.208.986A1.135,1.135,0,0,1,.64,7.669,3.074,3.074,0,0,1,.251,4.55Z" transform="translate(100.575 13.873) rotate(90)"/>
      <path id="Path_34-2" data-name="Path 34" class="cls-3" d="M2.125.25a20.991,20.991,0,0,0,2.485,1.7,2.728,2.728,0,0,1,.849,2.892C5.241,5.741,4.686,6.3,4.1,6.3a1.019,1.019,0,0,1-.514-.146A23.748,23.748,0,0,1,.792,4.244,2.924,2.924,0,0,1,.161,1.222C.528.12,1.406-.32,2.125.25Z" transform="translate(23.358 24.347) rotate(90)"/>
      <path id="Path_35-2" data-name="Path 35" class="cls-3" d="M1.519.259A14.967,14.967,0,0,0,4.225.012c.822-.126,1.525.734,1.62,1.964s-.475,2.348-1.273,2.5a17,17,0,0,1-3.053.278H1.394C.589,4.752,0,3.746,0,2.507S.714.259,1.519.259Z" transform="translate(19.393 35.52) rotate(90)"/>
      <path id="Path_36-2" data-name="Path 36" class="cls-3" d="M.991.12c.76-.4,1.589.236,1.846,1.41.294,1.343.629,2.678.995,3.974a2.821,2.821,0,0,1-.755,2.955,1.028,1.028,0,0,1-.58.186c-.564,0-1.1-.505-1.337-1.349C.763,5.884.4,4.427.078,2.963A2.658,2.658,0,0,1,.991.12Z" transform="translate(50.107 9.969) rotate(90)"/>
      <path id="Path_37-2" data-name="Path 37" class="cls-3" d="M1.457,0c.806,0,1.457,1.078,1.457,2.317,0,1.385.034,2.775.1,4.129.063,1.237-.538,2.317-1.34,2.411a.983.983,0,0,1-.114.007C.807,8.864.17,7.97.111,6.792.036,5.323,0,3.817,0,2.317V2.173C0,.932.651,0,1.457,0Z" transform="translate(67.53 8.146) rotate(90)"/>
      <path id="Path_38-2" data-name="Path 38" class="cls-3" d="M.112,6.642c0-1.4-.036-2.82-.108-4.221C-.058,1.184.541.1,1.343.005c.788-.081,1.5.826,1.566,2.061.077,1.518.117,3.058.117,4.573v.047c0,1.239-.651,2.22-1.457,2.22S.112,7.881.112,6.642Z" transform="translate(71.855 62.906) rotate(90)"/>
      <path id="Path_39-2" data-name="Path 39" class="cls-3" d="M.86,1.7C1.055.5,1.847-.233,2.625.067A2.5,2.5,0,0,1,3.687,2.789c-.242,1.5-.529,2.993-.852,4.452-.207.934-.772,1.52-1.378,1.52a1.019,1.019,0,0,1-.471-.121A2.675,2.675,0,0,1,.079,5.788C.375,4.452.637,3.078.86,1.7Z" transform="translate(54.192 61.156) rotate(90)"/>
      <path id="Path_40-2" data-name="Path 40" class="cls-3" d="M4.1,6.285a1.064,1.064,0,0,1-.66-.245A21.148,21.148,0,0,0,.946,4.35,2.729,2.729,0,0,1,.092,1.46C.374.3,1.21-.293,1.967.145a23.728,23.728,0,0,1,2.791,1.9A2.917,2.917,0,0,1,5.4,5.061C5.137,5.838,4.626,6.285,4.1,6.285Z" transform="translate(113.399 44.119) rotate(90)"/>
      <path id="Path_41-2" data-name="Path 41" class="cls-3" d="M.873.194c.742-.507,1.6.018,1.919,1.154.4,1.405.766,2.863,1.09,4.331a2.676,2.676,0,0,1-.912,2.849,1,1,0,0,1-.468.119c-.607,0-1.174-.59-1.38-1.524-.3-1.347-.632-2.683-1-3.969A2.83,2.83,0,0,1,.873.194Z" transform="translate(89.059 60.131) rotate(90)"/>
      <path id="Path_42-2" data-name="Path 42" class="cls-3" d="M.8,2.473A24.9,24.9,0,0,0,3.156.367c.673-.68,1.575-.386,2.018.649a3.057,3.057,0,0,1-.421,3.107A27.992,27.992,0,0,1,2.116,6.476a1.053,1.053,0,0,1-.657.242c-.532,0-1.045-.449-1.3-1.228A2.911,2.911,0,0,1,.8,2.473Z" transform="translate(25.497 46.703) rotate(90)"/>
      <path id="Path_43-2" data-name="Path 43" class="cls-3" d="M1.973.989C2.424-.039,3.329-.309,4,.385A3.077,3.077,0,0,1,4.387,3.5c-.571,1.3-1.177,2.557-1.8,3.736a1.34,1.34,0,0,1-1.128.822,1.187,1.187,0,0,1-.922-.51A3.145,3.145,0,0,1,.33,4.39C.9,3.319,1.451,2.174,1.973.989Z" transform="translate(37.987 55.604) rotate(90)"/>
      <path id="Path_44-2" data-name="Path 44" class="cls-3" d="M2.491.664c.7,1.091,1.384,2.259,2.025,3.466A3.136,3.136,0,0,1,4.31,7.289a1.19,1.19,0,0,1-.921.507A1.339,1.339,0,0,1,2.26,6.973c-.581-1.1-1.2-2.155-1.837-3.145A3.163,3.163,0,0,1,.432.653,1.135,1.135,0,0,1,2.491.664Z" transform="translate(103.73 53.71) rotate(90)"/>
      <rect id="Rectangle_23-2" data-name="Rectangle 23" class="cls-3" width="2.967" height="8.407" transform="translate(120.679 53.411)"/>
      <rect id="Rectangle_24-2" data-name="Rectangle 24" class="cls-3" width="2.967" height="8.407" transform="translate(112.766 59.84)"/>
      <rect id="Rectangle_25-2" data-name="Rectangle 25" class="cls-3" width="2.967" height="8.407" transform="translate(104.853 64.785)"/>
      <rect id="Rectangle_26-2" data-name="Rectangle 26" class="cls-3" width="2.967" height="8.407" transform="translate(96.94 67.258)"/>
    </g>
    <g id="wallet2" transform="translate(211.461 1617.868)">
      <g id="Group_86" data-name="Group 86" transform="translate(50 64)">
        <g id="Group_85" data-name="Group 85">
          <g id="Group_100" data-name="Group 100">
            <rect id="Rectangle_62" data-name="Rectangle 62" class="cls-5" width="303.066" height="260.131" rx="10" transform="translate(6.049 5.028)"/>
            <g id="Group_99" data-name="Group 99">
              <rect id="Rectangle_63" data-name="Rectangle 63" class="cls-5" width="21.011" height="74.909" rx="10" transform="translate(295.98 97.639)"/>
              <path id="Path_144" data-name="Path 144" class="cls-3" d="M364.169,158.062h-.4V89.33A25.359,25.359,0,0,0,338.437,64H75.33A25.359,25.359,0,0,0,50,89.33V308.051a25.359,25.359,0,0,0,25.33,25.33H338.437a25.359,25.359,0,0,0,25.33-25.33V239.319h.4c6.873,0,8.464-5.057,8.464-8.464v-64.33C372.633,163.275,371.042,158.062,364.169,158.062ZM355.7,308.051c0,13.185-9.952,17.268-17.268,17.268H75.33c-7.316,0-17.325-5.872-17.268-17.268v-2.4H75.335c3.331,0,5.031-2.042,5.031-4.031s-1.7-4.031-5.031-4.031H58.062V99.794H75.33c3.331,0,5.031-1.731,5.031-4.031s-1.7-4.031-5.031-4.031H58.062v-2.4c0-7.316,5.831-17.173,17.268-17.268H338.437c7.316,0,17.415,6.01,17.268,17.268v68.732h-81.6c-24.609,0-40.629,16.02-40.629,40.629s16.02,40.629,40.629,40.629h81.6Zm8.866-77.2a.4.4,0,0,1-.4.4H274.107c-23.8,0-32.567-14.609-32.567-32.567s10.542-32.567,32.567-32.567h83.6l.031,0,.031,0h6.4a.4.4,0,0,1,.4.4Z" transform="translate(-50 -64)"/>
              <path id="Path_160" data-name="Path 160" class="cls-3" d="M398.037,360.5h6.433c3.817,0,4.031-.277,4.031-4.031v-6.433c0-1.9.13-6.031-4.031-6.031s-4.031,4.7-4.031,8.031v.4h-.4c-4.045,0-8.031.284-8.031,4.031C392.006,359.881,394.706,360.5,398.037,360.5Z" transform="translate(-122.461 -118.846)"/>
              <path id="Path_170" data-name="Path 170" class="cls-3" d="M398.037,360.5h6.433c3.817,0,4.031-.277,4.031-4.031v-6.433c0-1.9.13-6.031-4.031-6.031s-4.031,4.7-4.031,8.031v.4h-.4c-4.045,0-8.031.284-8.031,4.031C392.006,359.881,394.706,360.5,398.037,360.5Z" transform="translate(-74.456 435.656) rotate(-90)"/>
              <circle id="Ellipse_25" data-name="Ellipse 25" class="cls-6" cx="19.079" cy="19.079" r="19.079" transform="matrix(0.966, -0.259, 0.259, 0.966, 200.955, 121.35)"/>
              <path id="Path_162" data-name="Path 162" class="cls-7" d="M38.157.888A19.079,19.079,0,0,1,0,.888c0-5.11.572,16.4,18.781,16.1C38.133,16.661,38.157-4.538,38.157.888Z" transform="matrix(0.966, -0.259, 0.259, 0.966, 205.663, 138.92)"/>
              <rect id="Rectangle_76" data-name="Rectangle 76" class="cls-3" width="31" height="9" rx="4.5" transform="translate(179.539 233.132)"/>
              <rect id="Rectangle_84" data-name="Rectangle 84" class="cls-3" width="31" height="9" rx="4.5" transform="translate(179.539 27.132)"/>
              <rect id="Rectangle_80" data-name="Rectangle 80" class="cls-3" width="31" height="9" rx="4.5" transform="translate(224.539 233.132)"/>
              <rect id="Rectangle_83" data-name="Rectangle 83" class="cls-3" width="31" height="9" rx="4.5" transform="translate(224.539 27.132)"/>
              <rect id="Rectangle_81" data-name="Rectangle 81" class="cls-3" width="31" height="9" rx="4.5" transform="translate(286.539 183.132) rotate(90)"/>
              <rect id="Rectangle_82" data-name="Rectangle 82" class="cls-3" width="31" height="9" rx="4.5" transform="translate(286.539 55.132) rotate(90)"/>
              <rect id="Rectangle_79" data-name="Rectangle 79" class="cls-3" width="31" height="9" rx="4.5" transform="translate(89.539 233.132)"/>
              <rect id="Rectangle_86" data-name="Rectangle 86" class="cls-3" width="31" height="9" rx="4.5" transform="translate(89.539 27.132)"/>
              <rect id="Rectangle_77" data-name="Rectangle 77" class="cls-3" width="31" height="9" rx="4.5" transform="translate(134.539 233.132)"/>
              <rect id="Rectangle_85" data-name="Rectangle 85" class="cls-3" width="31" height="9" rx="4.5" transform="translate(134.539 27.132)"/>
              <rect id="Rectangle_78" data-name="Rectangle 78" class="cls-3" width="31" height="9" rx="4.5" transform="translate(44.539 233.132)"/>
              <rect id="Rectangle_87" data-name="Rectangle 87" class="cls-3" width="31" height="9" rx="4.5" transform="translate(44.539 27.132)"/>
            </g>
          </g>
        </g>
      </g>
    </g>
    <g id="credit" transform="translate(167.855 1352.791)">
      <path id="Path_164" data-name="Path 164" class="cls-8" d="M623.61,701.075l53.244-80.657s3.576-5.564-3.974-7.55S467.2,566.875,467.2,566.875s-8.74-1.986-13.956,2.706S375.692,636.7,375.692,636.7s-3.65,4.1,2.012,5.736S609.99,704.7,609.99,704.7,618.906,708.2,623.61,701.075Z" transform="translate(0 0)"/>
      <path id="Path_165" data-name="Path 165" class="cls-3" d="M627.61,643.492l-232.2-56.58,17.882-15.443,226.288,53.894Z" transform="translate(29.378 7.021)"/>
      <ellipse id="Ellipse_26" data-name="Ellipse 26" class="cls-9" cx="21.899" cy="16.299" rx="21.899" ry="16.299" transform="translate(539.618 641.544)"/>
      <ellipse id="Ellipse_27" data-name="Ellipse 27" class="cls-10" cx="21.902" cy="16.299" rx="21.902" ry="16.299" transform="translate(568.643 650.201)"/>
    </g>
  </g>
</svg>
